Coordinates
version=1
nRows=23
nColumns=38
inDegrees=no

Units are S.I. units (second, meters, Newtons, ...)
If the header above contains a line with 'inDegrees', this indicates whether rotational values are in degrees (yes) or radians (no).

endheader
time	pelvis_tilt	pelvis_list	pelvis_rotation	pelvis_tx	pelvis_ty	pelvis_tz	hip_flexion_r	hip_adduction_r	hip_rotation_r	knee_angle_r	ankle_angle_r	subtalar_angle_r	mtp_angle_r	hip_flexion_l	hip_adduction_l	hip_rotation_l	knee_angle_l	ankle_angle_l	subtalar_angle_l	mtp_angle_l	lumbar_extension	lumbar_bending	lumbar_rotation	arm_flex_r	arm_add_r	arm_rot_r	elbow_flex_r	pro_sup_r	wrist_flex_r	wrist_dev_r	arm_flex_l	arm_add_l	arm_rot_l	elbow_flex_l	pro_sup_l	wrist_flex_l	wrist_dev_l
0.43	-3.0165	1.27268	-1.56472	0.896585	-0.201888	1.08593	-0.326015	-0.0442527	-0.312661	0.588457	-0.0206491	0	0	0.0764388	-0.031105	-0.0691863	0.159362	-0.0770735	0	0	-0.460397	0.0652068	-0.0863133	0.712977	-0.380201	0.655899	1.11182	0.730179	0	0	0.248887	-0.540309	-0.0480652	1.24166	0.719555	0	0
0.44	-3.01975	1.27538	-1.5603	0.893448	-0.189549	1.08374	-0.333904	-0.0452632	-0.314983	0.59342	-0.0186469	0	0	0.0676749	-0.0297179	-0.0583017	0.123015	-0.0697194	0	0	-0.455878	0.067011	-0.0884732	0.712649	-0.381391	0.655862	1.1131	0.727866	0	0	0.248192	-0.53995	-0.0483796	1.24343	0.720278	0	0
0.45	-3.01929	1.27699	-1.55959	0.890332	-0.177062	1.08174	-0.342863	-0.0476439	-0.318256	0.598392	-0.0180687	0	0	0.0529867	-0.0266264	-0.0332262	0.0787451	-0.0838316	0	0	-0.452784	0.0670121	-0.0902838	0.70807	-0.380113	0.647151	1.11517	0.738648	0	0	0.248598	-0.54056	-0.0471199	1.24519	0.720797	0	0
0.46	-3.01861	1.27776	-1.56104	0.887264	-0.164367	1.07981	-0.352671	-0.0510308	-0.318543	0.602978	-0.0192771	0	0	0.048992	-0.0257373	-0.0351686	0.0739839	-0.0820556	0	0	-0.450179	0.0664919	-0.0908404	0.706288	-0.380748	0.644819	1.11691	0.740717	0	0	0.24847	-0.54085	-0.0465042	1.24652	0.721066	0	0
0.47	-3.01434	1.27753	-1.56704	0.884166	-0.151507	1.07803	-0.363369	-0.0563382	-0.317842	0.608278	-0.0208103	0	0	0.0451952	-0.0235429	-0.0373539	0.0803663	-0.081464	0	0	-0.448551	0.0645501	-0.0907271	0.704549	-0.381501	0.642593	1.11865	0.742843	0	0	0.248679	-0.540964	-0.0457322	1.24768	0.720637	0	0
0.48	-3.01105	1.27569	-1.57405	0.88114	-0.138355	1.07643	-0.37586	-0.0621408	-0.314158	0.612744	-0.0247857	0	0	0.0491579	-0.024122	-0.0638032	0.123131	-0.0593245	0	0	-0.447904	0.0623453	-0.089869	0.705888	-0.383317	0.647153	1.11918	0.736738	0	0	0.247233	-0.540459	-0.0473009	1.24921	0.720561	0	0
0.49	-3.00345	1.27201	-1.58653	0.878319	-0.124987	1.0752	-0.390159	-0.0697566	-0.309509	0.616721	-0.0304203	0	0	0.0451148	-0.0230756	-0.0770852	0.157324	-0.0559	0	0	-0.449304	0.0576045	-0.0878442	0.704147	-0.383171	0.645306	1.12009	0.738267	0	0	0.24648	-0.541428	-0.0469655	1.25086	0.720688	0	0
0.5	-2.9967	1.26744	-1.60124	0.875772	-0.111233	1.07405	-0.404307	-0.0784406	-0.301306	0.621685	-0.0383476	0	0	0.0444087	-0.0244067	-0.107446	0.209065	-0.0366694	0	0	-0.450921	0.0518191	-0.0828711	0.701876	-0.383845	0.644108	1.12155	0.738507	0	0	0.24548	-0.542047	-0.0463161	1.252	0.721597	0	0
0.51	-2.98848	1.2619	-1.61955	0.873428	-0.097253	1.07307	-0.417554	-0.0891297	-0.291074	0.629071	-0.0484754	0	0	0.0373558	-0.0235909	-0.128418	0.245148	-0.0207439	0	0	-0.453011	0.044399	-0.07615	0.69904	-0.384164	0.642122	1.12254	0.738377	0	0	0.244422	-0.542316	-0.0458164	1.25279	0.722443	0	0
0.52	-3.05546	1.28052	-1.49728	0.86441	-0.0798877	1.0715	-0.432956	-0.0421814	-0.342676	0.585651	-0.091789	0	0	0.0688699	-0.0426189	-0.0540221	0.287445	0.00428733	0	0	-0.417717	0.0770957	-0.115298	0.665149	-0.379751	0.615689	1.12116	0.748662	0	0	0.239617	-0.539059	-0.0380215	1.24517	0.729101	0	0
0.53	-3.03889	1.2763	-1.5202	0.861532	-0.0655314	1.07094	-0.439961	-0.0559335	-0.338206	0.604149	-0.113711	0	0	0.0561972	-0.035293	-0.0509136	0.289579	0.0089966	0	0	-0.418159	0.0680701	-0.111999	0.658335	-0.37702	0.608465	1.12057	0.75791	0	0	0.238486	-0.539484	-0.0372551	1.24491	0.729973	0	0
0.54	-3.01845	1.27184	-1.54567	0.858507	-0.0512059	1.07068	-0.444996	-0.0713964	-0.334462	0.62578	-0.142667	0	0	0.0409992	-0.0255709	-0.0411604	0.281201	-0.00351519	0	0	-0.419871	0.0576788	-0.107597	0.64544	-0.373513	0.589385	1.12387	0.778935	0	0	0.240705	-0.540412	-0.0320509	1.24418	0.729807	0	0
0.55	-3.00929	1.25794	-1.56289	0.855918	-0.0377323	1.07169	-0.457037	-0.0832554	-0.321859	0.646	-0.1831	0	0	0.0135388	-0.02005	-0.037697	0.267859	-0.0259001	0	0	-0.432749	0.050925	-0.104057	0.646332	-0.370628	0.588593	1.12182	0.782685	0	0	0.24075	-0.541908	-0.0335536	1.24506	0.732298	0	0
0.56	-2.99431	1.25464	-1.58005	0.85221	-0.0234439	1.0715	-0.45586	-0.0976344	-0.317547	0.673336	-0.220068	0	0	0.000327777	-0.0115468	-0.0326544	0.262873	-0.0404833	0	0	-0.431681	0.0438766	-0.104365	0.640232	-0.369794	0.584355	1.12219	0.785127	0	0	0.239836	-0.541985	-0.0318068	1.24358	0.734393	0	0
0.57	-2.98311	1.25229	-1.59169	0.848043	-0.0091468	1.07128	-0.451614	-0.110988	-0.3124	0.704148	-0.244807	0	0	-0.00818267	-0.00501343	-0.0329642	0.267909	-0.0479421	0	0	-0.429017	0.039436	-0.106652	0.635877	-0.370279	0.584593	1.12228	0.781816	0	0	0.237905	-0.541423	-0.030952	1.24141	0.735535	0	0
0.58	-2.97626	1.25019	-1.59713	0.843533	0.00497272	1.07121	-0.445193	-0.122624	-0.307167	0.735501	-0.294421	0	0	-0.0104246	-0.00164707	-0.0398604	0.286898	-0.0573933	0	0	-0.426763	0.0375443	-0.109848	0.629907	-0.370175	0.580563	1.12357	0.784389	0	0	0.236652	-0.5402	-0.0300125	1.23895	0.737668	0	0
0.59	-2.97174	1.24824	-1.59948	0.838938	0.0188153	1.07138	-0.435728	-0.133227	-0.300289	0.768614	-0.34928	0	0	-0.00710202	-0.00158926	-0.0542436	0.319719	-0.0623697	0	0	-0.425265	0.036822	-0.113567	0.624656	-0.370236	0.57686	1.12496	0.787094	0	0	0.235857	-0.53887	-0.0290499	1.2366	0.738879	0	0
0.6	-2.96591	1.24575	-1.60354	0.834543	0.0323246	1.07209	-0.42297	-0.144058	-0.291318	0.804319	-0.412808	0	0	-0.00316966	-0.00289613	-0.0719883	0.357123	-0.0667207	0	0	-0.42568	0.0351876	-0.116738	0.619678	-0.369791	0.572185	1.12616	0.790117	0	0	0.236279	-0.537852	-0.0276419	1.23406	0.739427	0	0
0.61	-2.95922	1.24218	-1.60872	0.830418	0.0453862	1.07344	-0.408978	-0.15364	-0.279013	0.839346	-0.47597	0	0	-0.00152538	-0.00456976	-0.0889116	0.392584	-0.0732073	0	0	-0.429584	0.0327312	-0.117807	0.613001	-0.36986	0.562414	1.13002	0.793315	0	0	0.240265	-0.537929	-0.0224821	1.23146	0.738278	0	0
0.62	-2.95346	1.23853	-1.61239	0.826431	0.0578987	1.07512	-0.39183	-0.16114	-0.264376	0.877735	-0.52508	0	0	-0.00155922	-0.00632557	-0.101041	0.423521	-0.0808305	0	0	-0.433747	0.0306892	-0.12253	0.612516	-0.366729	0.560436	1.12696	0.794471	0	0	0.241454	-0.538503	-0.0227962	1.22948	0.741492	0	0
0.63	-2.95215	1.23503	-1.61126	0.822455	0.0699843	1.07695	-0.373418	-0.164836	-0.247112	0.914725	-0.572895	0	0	-0.00234499	-0.0099508	-0.112379	0.453412	-0.0867623	0	0	-0.439224	0.0308233	-0.126191	0.612043	-0.365325	0.55821	1.12633	0.797563	0	0	0.244454	-0.539235	-0.0211298	1.22777	0.742993	0	0
0.64	-2.9553	1.23172	-1.60574	0.818442	0.0817479	1.07881	-0.354072	-0.165122	-0.228475	0.949231	-0.629598	0	0	-0.00473812	-0.0145488	-0.123882	0.479533	-0.0917714	0	0	-0.445023	0.0332529	-0.12919	0.612855	-0.365024	0.557302	1.12597	0.799798	0	0	0.247968	-0.539466	-0.0191849	1.22589	0.744174	0	0
0.65	-2.95945	1.22874	-1.59983	0.8145	0.0933025	1.08069	-0.333636	-0.163414	-0.208526	0.983499	-0.665778	0	0	-0.0107638	-0.0177113	-0.132636	0.498296	-0.094052	0	0	-0.450627	0.0362708	-0.131387	0.614709	-0.365521	0.557894	1.12551	0.798455	0	0	0.251653	-0.539502	-0.0170553	1.2239	0.743727	0	0
